<?xml version="1.0" standalone="no"?>
<!DOCTYPE svg PUBLIC "-//W3C//DTD SVG 20010904//EN"
 "http://www.w3.org/TR/2001/REC-SVG-20010904/DTD/svg10.dtd">
<svg version="1.0" xmlns="http://www.w3.org/2000/svg"
 width="217.000000pt" height="217.000000pt" viewBox="0 0 217.000000 217.000000"
 preserveAspectRatio="xMidYMid meet">
<metadata>
Created by potrace 1.14, written by Peter Selinger 2001-2017
</metadata>
<g transform="translate(0.000000,217.000000) scale(0.100000,-0.100000)"
fill="#000000" stroke="none">
<path d="M935 2159 c-118 -17 -232 -51 -334 -101 -88 -42 -116 -62 -180 -126
-115 -116 -159 -219 -165 -387 -9 -233 92 -402 296 -494 56 -26 168 -67 208
-76 55 -13 273 -55 310 -60 25 -3 52 -8 60 -10 8 -3 33 -7 56 -10 69 -8 229
-52 272 -74 99 -50 137 -109 134 -208 -2 -86 -58 -170 -141 -213 -88 -44 -156
-54 -366 -54 -193 0 -204 2 -319 32 -126 34 -289 98 -346 136 -74 49 -70 52
-155 -111 l-78 -147 29 -23 c90 -72 346 -168 534 -199 19 -3 37 -7 40 -9 11
-6 188 -18 275 -18 106 0 234 10 290 23 22 5 54 11 70 14 78 14 201 66 285
121 121 79 199 174 241 296 32 92 32 277 -1 364 -70 185 -222 291 -515 360
-55 13 -116 27 -135 30 -19 3 -42 8 -50 10 -8 2 -37 7 -65 10 -27 4 -68 11
-90 15 -22 5 -56 12 -75 15 -115 19 -266 77 -319 121 -58 49 -81 159 -52 246
25 75 141 160 256 187 160 37 423 24 601 -30 38 -11 107 -41 153 -65 46 -24
85 -44 87 -44 1 0 24 39 50 88 25 48 62 114 81 147 41 70 42 66 -73 121 -103
48 -236 85 -434 120 -57 10 -370 12 -435 3z"/>
</g>
</svg>
